# xmcd CD database file
#
# Track frame offsets:
#	150
#	21092
#	40884
#	55099
#	74130
#	88834
#	111206
#	126562
#	146849
#	158008
#
# Disc length: 2474 seconds
#
# Revision: 4
# Processed by: cddbd v1.5.1PL0 Copyright (c) Steve Scherf et al.
# Submitted via: CDex 1.51
#
DISCID=9409a80a
DTITLE=Willy DeVille - Crow Jane Alley
DYEAR=2004
DGENRE=Rock
TTITLE0=Chieva
TTITLE1=Right there, right then
TTITLE2=Downside of town
TTITLE3=My forever came today
TTITLE4=Crow Jane Alley ( for Jack )
TTITLE5=Muddy Waters rose out of the Mississippi mud
TTITLE6=Come a little bit closer
TTITLE7=Slave to love
TTITLE8=( Don't have a ) Change of heart
TTITLE9=Trouble comin' everyday in a world gone wrong
EXTD=YEAR: 2004
EXTT0=
EXTT1=
EXTT2=
EXTT3=
EXTT4=
EXTT5=
EXTT6=
EXTT7=
EXTT8=
EXTT9=
PLAYORDER=
